<svg width="48" height="48" viewBox="0 0 48 48" fill="none" xmlns="http://www.w3.org/2000/svg">
<path d="M20.1493 39.1402H10.4904C9.77942 39.1402 9.11217 38.1151 9.11217 37.3845V10.6131C9.1338 10.2584 9.28992 9.92641 9.54731 9.68763C9.80471 9.44886 10.1431 9.32217 10.4904 9.33451H36.6958C37.4251 9.33451 38.2819 9.88246 38.2819 10.6131V20.1594L46.6683 23.0743V2.10674C46.6683 0.913911 46.1651 0.000657632 45.0019 0.000657632H2.19164C1.6292 -0.0134466 1.08402 0.1998 0.674426 0.594103C0.264836 0.988406 0.0238987 1.53194 0.00390625 2.10674V45.8759C0.00390625 47.0688 1.02849 47.7136 2.19164 47.7136H22.9496L20.1493 39.1402Z" fill="#ED4142"/>
<path d="M46.9802 43.0828L38.8309 34.7517L46.3276 30.5992C46.4213 30.5074 46.4894 30.3917 46.5248 30.264C46.5601 30.1364 46.5616 30.0013 46.5289 29.8729C46.4962 29.7445 46.4305 29.6273 46.3387 29.5335C46.2469 29.4397 46.1323 29.3726 46.0067 29.3392L23.2506 22.4171C23.1215 22.372 22.9826 22.3647 22.8497 22.3962C22.7168 22.4277 22.5952 22.4967 22.4987 22.5953C22.4023 22.6939 22.3348 22.8182 22.304 22.9541C22.2732 23.09 22.2803 23.232 22.3245 23.3639L29.2523 46.8477C29.2853 46.978 29.3522 47.0967 29.4458 47.1913C29.5395 47.2859 29.6565 47.3528 29.7843 47.3849C29.9122 47.417 30.0462 47.4131 30.1721 47.3737C30.2979 47.3342 30.411 47.2606 30.4993 47.1608L34.2804 39.5714L42.3313 47.8019C42.4455 47.9185 42.6002 47.9839 42.7616 47.9839C42.9229 47.9839 43.0776 47.9185 43.1918 47.8019L46.9656 43.9439C47.0753 43.8295 47.138 43.6765 47.1407 43.5163C47.1434 43.3562 47.086 43.201 46.9802 43.0828Z" fill="#ED4142"/>
</svg>
