<svg xmlns="http://www.w3.org/2000/svg" viewBox="0 0 630.79 128.77"><defs><style>.cls-1{fill:#02638e;}.cls-2{fill:#ed4142;}</style></defs><title>Asset 1</title><g id="Layer_2" data-name="Layer 2"><g id="Layer_1-2" data-name="Layer 1"><path class="cls-1" d="M217.6,58.76q-10.12,0-15.12,7.18t-5,19v35.23H174.81V38.8h22.68V49.53a38.23,38.23,0,0,1,11-8.46,29.79,29.79,0,0,1,13.38-3.63L222,58.76Z"/><path class="cls-1" d="M313.3,79.47q0,17.69-12.25,29.78t-30.76,12.1q-18.53,0-30.77-12.1T227.27,79.47a40.5,40.5,0,0,1,12.25-29.86q12.24-12.16,30.77-12.17t30.76,12.17A40.47,40.47,0,0,1,313.3,79.47Zm-63.2,0q0,10,5.67,16.25a19.91,19.91,0,0,0,29,0q5.67-6.27,5.67-16.25T284.8,63.14a19.76,19.76,0,0,0-29,0Q250.1,69.49,250.1,79.47Z"/><path class="cls-1" d="M367.12,120.14H343.69L316,38.8h23.44l15.87,49.13L371.2,38.8h21.93L409,87.93,424.88,38.8h23.58L420.8,120.14H397.21l-15-44.3Z"/><path class="cls-1" d="M527.83,108.35a45.46,45.46,0,0,1-32.27,13q-18.53,0-30.62-11.42t-12.1-30.61q0-19.2,12.32-30.54a41.58,41.58,0,0,1,29.11-11.34q16.78,0,28.5,10.13t11.71,27.82V87.48H475.22a16.15,16.15,0,0,0,6.95,10.89,22.3,22.3,0,0,0,13.31,4.23q11.94,0,19.65-8ZM506.06,60.12a17.16,17.16,0,0,0-11.41-3.93,20.41,20.41,0,0,0-12.32,4.08,15.63,15.63,0,0,0-6.51,11H511.5Q510.75,64.06,506.06,60.12Z"/><path class="cls-1" d="M593.9,37.44q14.82,0,25.86,11.57t11,29.7q0,18.15-11.34,30.39t-25.77,12.25q-14.45,0-24-11.95v10.74H547V8h22.68V47.87Q579.09,37.45,593.9,37.44ZM569.41,79.55q0,9.9,5.52,16.17A17.17,17.17,0,0,0,588.31,102a18.31,18.31,0,0,0,13.76-6.28Q608,89.45,608,79.62t-5.74-16.48q-5.75-6.64-13.76-6.65a17,17,0,0,0-13.53,6.57Q569.41,69.65,569.41,79.55Z"/><path class="cls-2" d="M55.26,105H28.78c-2,0-3.78-2.75-3.78-4.71V28.43A3.66,3.66,0,0,1,28.78,25h71.87c1.95,0,4.35,1.47,4.35,3.43V54l23,7.82V5.65c0-3.2-1.38-5.65-4.57-5.65H6A5.86,5.86,0,0,0,0,5.65V123.07c0,3.2,2.81,4.93,6,4.93H62.94Z"/><path class="cls-2" d="M128.84,115.58,106.5,93.23l20.56-11.14a2,2,0,0,0-.88-3.38L63.77,60.14a2,2,0,0,0-2.53,2.54l19,63a2,2,0,0,0,3.42.84L94.06,106.2l22.08,22.08a1.67,1.67,0,0,0,2.36,0l10.34-10.35A1.66,1.66,0,0,0,128.84,115.58Z"/></g></g></svg>